<svg width="16" height="20" viewBox="0 0 16 20" fill="none" xmlns="http://www.w3.org/2000/svg">
<path fill-rule="evenodd" clip-rule="evenodd" d="M9.00116 1C9.00116 0.447715 8.55344 0 8.00116 0C7.44887 0 7.00116 0.447715 7.00116 1V1.75H6.44374C4.21867 1.75 2.37707 3.48001 2.23818 5.70074L2.01717 9.2342C1.93291 10.5814 1.48062 11.8796 0.709563 12.9876C0.0128816 13.9886 0.633102 15.3712 1.84403 15.5165L5.25116 15.9254V17C5.25116 18.5188 6.48238 19.75 8.00116 19.75C9.51994 19.75 10.7512 18.5188 10.7512 17V15.9254L14.1583 15.5165C15.3692 15.3712 15.9894 13.9886 15.2927 12.9876C14.5217 11.8797 14.0694 10.5814 13.9851 9.2342L13.7641 5.70074C13.6252 3.48001 11.7836 1.75 9.55857 1.75H9.00116V1ZM6.44374 3.25C5.01074 3.25 3.8247 4.36417 3.73525 5.79438L3.51425 9.32783C3.41285 10.949 2.8686 12.5112 1.94075 13.8444C1.8904 13.9168 1.93522 14.0167 2.02275 14.0272L5.76041 14.4757C7.2489 14.6543 8.75341 14.6543 10.2419 14.4757L13.9796 14.0272C14.0671 14.0167 14.1119 13.9168 14.0616 13.8444C13.1337 12.5112 12.5895 10.949 12.4881 9.32783L12.2671 5.79438C12.1776 4.36417 10.9916 3.25 9.55857 3.25H6.44374ZM8.00116 18.25C7.3108 18.25 6.75116 17.6904 6.75116 17V16.25H9.25116V17C9.25116 17.6904 8.69151 18.25 8.00116 18.25Z" fill="black"/>
</svg>
